<svg width="91" height="16" viewBox="0 0 91 16" fill="none" xmlns="http://www.w3.org/2000/svg">
<path d="M9.0191 0L11.0698 6.11146H17.7062L12.3373 9.88854L14.388 16L9.0191 12.2229L3.6502 16L5.70093 9.88854L0.332031 6.11146H6.96836L9.0191 0Z" fill="#F88E08"/>
<path d="M26.8402 0L28.891 6.11146H35.5273L30.1584 9.88854L32.2091 16L26.8402 12.2229L21.4713 16L23.5221 9.88854L18.1532 6.11146H24.7895L26.8402 0Z" fill="#F88E08"/>
<path d="M45.1085 0L47.1592 6.11146H53.7955L48.4266 9.88854L50.4774 16L45.1085 12.2229L39.7396 16L41.7903 9.88854L36.4214 6.11146H43.0577L45.1085 0Z" fill="#F88E08"/>
<path d="M63.3767 0L65.4275 6.11146H72.0638L66.6949 9.88854L68.7456 16L63.3767 12.2229L58.0078 16L60.0586 9.88854L54.6897 6.11146H61.326L63.3767 0Z" fill="#F88E08"/>
<path d="M81.645 0L83.6957 6.11146H90.332L84.9631 9.88854L87.0139 16L81.645 12.2229L76.2761 16L78.3268 9.88854L72.9579 6.11146H79.5942L81.645 0Z" fill="#F88E08"/>
</svg>
