<svg width="87" height="86" viewBox="0 0 87 86" fill="none" xmlns="http://www.w3.org/2000/svg">
<path d="M17.882 65.6825C16.3483 64.2911 14.8067 64.9026 13.4751 67.0753L15.0087 68.4667C16.0406 67.0272 16.4755 66.709 16.7862 66.9909C17.1571 67.3274 16.8844 67.8293 15.2929 69.5835C13.6923 71.3477 13.1738 71.7178 12.8029 71.3813C12.4821 71.0903 12.7394 70.6658 13.951 69.5721L12.4775 68.2352C10.5452 69.6802 10.1479 71.1654 11.6615 72.5387C13.2252 73.9574 14.8143 73.5352 16.997 71.1295C19.1796 68.7238 19.4456 67.1012 17.882 65.6825Z" fill="white"/>
<path d="M14.274 60.9891C13.0259 59.3708 11.4904 59.5295 8.89686 61.5298C6.29259 63.5384 5.73826 64.9915 6.98639 66.6098C8.21799 68.2066 9.80218 68.0445 12.385 66.0525C14.9571 64.0687 15.5139 62.5966 14.274 60.9891ZM12.9666 61.9975C13.2228 62.3297 12.8602 62.7461 10.9526 64.2174C9.03422 65.697 8.50725 65.9666 8.25101 65.6344C7.99477 65.3022 8.38948 64.861 10.3079 63.3814C12.2155 61.9101 12.7103 61.6652 12.9666 61.9975Z" fill="white"/>
<path d="M11.5738 55.8841L8.34811 57.543L7.73531 56.3514L6.13452 57.1747L6.74732 58.3663L5.17061 59.1771L4.35354 57.5884L2.76479 58.4055L4.60938 61.9922L12.6013 57.8821L11.5738 55.8841Z" fill="white"/>
<path d="M10.0645 51.3194L6.63718 52.5071L6.19847 51.241L4.49761 51.8304L4.93632 53.0964L3.26104 53.6769L2.6761 51.9889L0.98803 52.5738L2.30859 56.3848L10.8001 53.4423L10.0645 51.3194Z" fill="white"/>
<path d="M8.83498 44.5057L7.07953 44.8375L7.45159 46.8057L5.65624 47.1451L5.38222 45.6955L3.61347 46.0299L3.88749 47.4795L2.14534 47.8088L1.77328 45.8406L0.0178233 46.1724L0.804688 50.335L9.62184 48.6682L8.83498 44.5057Z" fill="white"/>
<path d="M8.96533 39.6285L7.1806 39.7088L7.27059 41.7099L5.44529 41.792L5.37901 40.3182L3.58075 40.3991L3.64703 41.8728L1.87581 41.9525L1.78582 39.9514L0.00108313 40.0317L0.191406 44.2637L9.15566 43.8605L8.96533 39.6285Z" fill="white"/>
<path d="M10.5333 32.6618L5.6799 30.89L10.8358 31.1075L11.2624 28.9154L2.75677 25.6469L2.40258 27.467L7.58222 29.192L2.13629 28.8354L1.71746 30.9876L6.86019 32.7605L1.446 32.3825L1.00391 34.6543L10.1067 34.8539L10.5333 32.6618Z" fill="white"/>
<path d="M13.8859 25.5633L5.82139 21.5976L4.83594 23.6016L12.9005 27.5673L13.8859 25.5633Z" fill="white"/>
<path d="M16.1969 22.0705L10.0812 18.2703L10.7241 17.2357L9.20664 16.2927L6.74219 20.2588L8.25963 21.2017L8.90253 20.1671L15.0183 23.9673L16.1969 22.0705Z" fill="white"/>
<path d="M18.9327 19.1126L16.1335 16.7634L16.7426 16.0377L19.5417 18.3869L20.9773 16.6764L14.0936 10.8991L12.658 12.6096L15.3534 14.8718L14.7444 15.5975L12.0489 13.3353L10.6133 15.0459L17.497 20.8232L18.9327 19.1126Z" fill="white"/>
<path d="M26.724 13.4228C27.198 13.1091 27.5342 12.5134 27.5171 12.0216L28.0263 12.3988L29.2905 11.5623L26.4302 7.23926L24.184 8.72545L25.1175 10.1364L25.5464 9.85257L25.9124 10.4057C26.4277 11.1845 26.4828 11.5375 26.178 11.7392C25.8055 11.9856 25.3529 11.5223 24.0983 9.62606C22.8212 7.69592 22.5831 7.09073 23.0007 6.8144C23.3845 6.56048 23.68 6.83554 24.0969 7.85802L25.8803 6.67803C25.0839 4.6895 23.6698 4.39178 22.0783 5.44481C20.4077 6.55012 20.4355 8.28447 22.1681 10.9031C24.0725 13.7814 25.4033 14.2966 26.724 13.4228Z" fill="white"/>
<path d="M32.4129 10.8115L31.12 7.78743L31.3813 7.6757C32.4018 7.23942 32.5793 9.54811 33.4582 10.3646L35.6236 9.43885C34.7037 8.69873 34.3971 5.70929 32.5823 6.14663C33.3647 5.63551 33.4648 4.97449 32.954 3.77979C32.1613 1.92552 31.1006 1.61357 28.8232 2.58721L26.832 3.43848L30.3595 11.6894L32.4129 10.8115ZM29.5558 4.12865L29.8171 4.01692C30.2776 3.82007 30.5742 4.03181 30.8987 4.79095C31.218 5.53764 31.1714 5.9108 30.711 6.10765L30.4496 6.21938L29.5558 4.12865Z" fill="white"/>
<path d="M40.6405 9.02178L40.2703 7.27402L38.3107 7.68911L37.9321 5.90162L39.3753 5.59592L39.0023 3.83491L37.559 4.14062L37.1916 2.40609L39.1512 1.99101L38.781 0.243247L34.6367 1.12109L36.4962 9.89963L40.6405 9.02178Z" fill="white"/>
<path d="M46.924 8.95301L44.2999 0.135072L42.1933 0.275884L40.7391 9.36642L42.8052 9.22831L42.8735 8.21997L44.2644 8.127L44.4933 9.11548L46.924 8.95301ZM43.1994 3.35562L43.8959 6.46962L42.9911 6.5301L43.1994 3.35562Z" fill="white"/>
<path d="M50.4018 9.94319L51.2035 2.78767L52.4141 2.9233L52.613 1.14787L47.9727 0.62793L47.7737 2.40336L48.9842 2.539L48.1825 9.69452L50.4018 9.94319Z" fill="white"/>
<path d="M57.0142 12.4239C58.7931 13.0765 59.8953 12.5871 60.5153 10.8971C61.457 8.33048 58.6273 7.1626 59.1867 5.63784C59.3126 5.29477 59.5015 5.13343 59.7811 5.23598C60.1495 5.37117 60.144 5.70071 59.7953 6.33685L61.536 6.97549C62.5541 5.57577 62.0867 4.4528 60.1935 3.75822C58.6814 3.20349 57.5157 3.66963 57.0122 5.0419C55.9633 7.90082 58.7914 8.83743 58.2133 10.413C58.0408 10.8831 57.8045 11.0559 57.5122 10.9487C57.1183 10.8042 57.1612 10.373 57.67 9.53611L55.7514 8.83221C54.6422 10.5589 55.1464 11.7386 57.0142 12.4239Z" fill="white"/>
<path d="M62.3744 15.4503C64.1463 16.4686 65.5045 15.735 67.1366 12.8953C68.7754 10.0438 68.7323 8.4892 66.9603 7.47085C65.2119 6.46598 63.81 7.2213 62.1846 10.0493C60.5661 12.8656 60.6142 14.4387 62.3744 15.4503ZM63.1972 14.0187C62.8334 13.8096 63.0093 13.2863 64.2097 11.1975C65.4169 9.09708 65.8008 8.64645 66.1645 8.85552C66.5283 9.06458 66.3322 9.62312 65.125 11.7236C63.9246 13.8123 63.5609 14.2277 63.1972 14.0187Z" fill="white"/>
<path d="M66.9596 19.4035C68.5457 20.7347 70.0626 20.0642 71.3094 17.8418L69.7233 16.5105C68.7477 17.9888 68.3254 18.3235 68.004 18.0538C67.6204 17.7318 67.8735 17.2198 69.3961 15.4055C70.9275 13.5809 71.4314 13.191 71.8149 13.513C72.1467 13.7914 71.906 14.2255 70.7375 15.3652L72.2615 16.6442C74.1366 15.1258 74.4763 13.6262 72.9109 12.3124C71.2936 10.9551 69.7219 11.4383 67.6337 13.9264C65.5455 16.4145 65.3423 18.0462 66.9596 19.4035Z" fill="white"/>
<path d="M70.6497 23.7057L77.5724 17.9751L76.1484 16.2549L69.2257 21.9855L70.6497 23.7057Z" fill="white"/>
<path d="M74.389 29.4368L80.7016 22.7441L79.5232 20.9922L70.9293 24.2934L72.0851 26.0116L72.9917 25.5649L73.7697 26.7216L73.0293 27.4154L74.389 29.4368ZM77.3634 23.4072L75.0187 25.5716L74.5126 24.8192L77.3634 23.4072Z" fill="white"/>
<path d="M75.5063 33.465L77.1562 32.745L76.5662 31.3929L83.1407 28.524L82.2422 26.4648L74.0178 30.0536L75.5063 33.465Z" fill="white"/>
<path d="M76.4837 40.1085C76.8609 42.1446 78.458 42.592 80.8336 41.6702L80.4564 39.634C78.7634 40.1542 78.2246 40.1438 78.1482 39.7313C78.057 39.2389 78.578 39.0047 80.9069 38.5733C83.2491 38.1394 83.8859 38.1591 83.9771 38.6515C84.056 39.0773 83.5942 39.2592 81.9676 39.3954L82.33 41.3516C84.7428 41.3727 85.9587 40.4316 85.5864 38.4221C85.2018 36.3461 83.6817 35.7192 80.4877 36.3109C77.2938 36.9026 76.0991 38.0324 76.4837 40.1085Z" fill="white"/>
<path d="M76.6279 49.1456L85.591 47.0709L85.5805 44.9595L76.5971 42.9469L76.6074 45.0177L77.6096 45.148L77.6165 46.5421L76.6158 46.7095L76.6279 49.1456ZM82.4446 45.7737L79.2935 46.2766L79.289 45.3698L82.4446 45.7737Z" fill="white"/>
<path d="M75.3917 52.1591C75.0991 53.8254 75.7796 54.6457 77.6592 54.9758L83.9378 56.0783L84.2515 54.292L77.7329 53.1473C77.0397 53.0256 76.8122 52.8345 76.8801 52.4479C76.9409 52.1013 77.249 51.9905 77.9155 52.1076L84.4341 53.2523L84.8203 51.0527L78.5417 49.9502C76.5821 49.6061 75.7359 50.1995 75.3917 52.1591Z" fill="white"/>
<path d="M73.5087 57.064C72.8561 58.8429 73.3455 59.9451 75.0355 60.5651C77.6021 61.5068 78.77 58.6771 80.2948 59.2365C80.6378 59.3624 80.7992 59.5513 80.6966 59.8309C80.5614 60.1993 80.2319 60.1938 79.5958 59.8451L78.9571 61.5858C80.3568 62.6039 81.4798 62.1365 82.1744 60.2433C82.7291 58.7312 82.263 57.5655 80.8907 57.062C78.0318 56.0132 77.0952 58.8412 75.5196 58.2631C75.0495 58.0906 74.8767 57.8543 74.9839 57.562C75.1284 57.1681 75.5596 57.211 76.3965 57.7198L77.1004 55.8012C75.3737 54.692 74.194 55.1962 73.5087 57.064Z" fill="white"/>
<path d="M69.7342 63.9838L71.2831 64.874L72.2812 63.1373L73.8654 64.0478L73.1303 65.3268L74.691 66.2238L75.4261 64.9447L76.9633 65.8282L75.9652 67.5649L77.5141 68.4551L79.625 64.7822L71.8451 60.3109L69.7342 63.9838Z" fill="white"/>
<path d="M67.6009 65.9154C66.4281 67.4037 66.5511 68.6034 67.965 69.7175C70.1123 71.4096 72.1012 69.0825 73.3769 70.0878C73.6639 70.3139 73.7586 70.5436 73.5743 70.7775C73.3314 71.0858 73.0198 70.9782 72.5234 70.4492L71.3758 71.9055C72.3902 73.308 73.6028 73.2124 74.8509 71.6284C75.8478 70.3634 75.7667 69.1105 74.6186 68.2058C72.2267 66.321 70.4582 68.7184 69.14 67.6796C68.7467 67.3697 68.6559 67.0913 68.8486 66.8468C69.1082 66.5173 69.5048 66.6919 70.1423 67.4355L71.4072 65.8303C70.1103 64.2397 68.8323 64.3527 67.6009 65.9154Z" fill="white"/>
<g clip-path="url(#clip0_80_5269)">
<path d="M60.8486 37.9652C60.8486 38.3139 60.8486 38.6627 60.8486 39.0115C60.6812 39.7579 60.437 40.4694 59.865 41.1252C60.3743 41.0554 60.6463 41.2647 60.8486 41.5925C60.8486 41.7321 60.8486 41.8716 60.8486 42.0111C60.6463 42.3947 60.3324 42.5133 59.9069 42.5133C58.1769 42.4924 56.4399 42.4994 54.71 42.5064C51.522 42.5203 48.5643 43.3644 45.8647 45.0734C45.2508 45.4641 44.6788 45.9035 44.1347 46.2872C45.0276 47.4173 45.8856 48.4985 46.7437 49.5867C46.7716 49.5658 46.8274 49.5309 46.8762 49.4821C48.5573 48.1079 50.4687 47.2359 52.6033 46.8592C54.1379 46.5872 55.6866 46.7058 57.2282 46.6848C57.7235 46.6779 58.0513 46.9778 58.0444 47.3964C58.0374 47.8079 57.7304 48.073 57.2421 48.08C56.4399 48.087 55.6377 48.087 54.8355 48.08C53.3148 48.073 51.8569 48.3451 50.4548 48.931C49.3247 49.4054 48.2992 50.0541 47.4691 50.8145C48.0063 52.3491 48.5294 53.828 49.0387 55.2999C49.0387 55.2999 49.0736 55.272 49.1015 55.2301C50.5315 53.2211 52.4847 52.2515 54.9332 52.2584C56.5725 52.2584 58.2118 52.2724 59.8511 52.2515C60.2836 52.2445 60.6184 52.3561 60.8416 52.7467C60.8416 52.8863 60.8416 53.0258 60.8416 53.1653C60.6393 53.549 60.3254 53.6675 59.8999 53.6606C58.1211 53.6396 56.3423 53.6327 54.5635 53.6606C51.7522 53.7024 49.4014 56.0253 49.3386 58.8017C49.3317 59.2202 49.1991 59.5132 48.8434 59.7155C48.7038 59.7155 48.5643 59.7155 48.4248 59.7155C48.0481 59.5132 47.9574 59.1923 47.9226 58.7668C47.8249 57.6228 47.7551 56.4648 47.504 55.3487C45.8647 47.9056 39.1192 42.5133 31.4807 42.5064C29.681 42.5064 27.8743 42.4994 26.0745 42.5133C25.649 42.5133 25.3281 42.3947 25.1328 42.0111C25.1328 41.8716 25.1328 41.7321 25.1328 41.5925C25.3281 41.2507 25.6211 41.0694 26.0955 41.1042C25.5374 40.4555 25.3002 39.7509 25.1328 39.0115C25.1328 38.6627 25.1328 38.3139 25.1328 37.9652C25.1607 37.8884 25.1886 37.8187 25.2026 37.7419C25.2933 37.3234 25.4746 37.135 25.8932 37.0653C27.4278 36.8142 28.7114 37.2815 29.7298 38.4604C29.7926 38.5372 29.8624 38.6139 29.9461 38.7116C30.0298 38.6139 30.0926 38.5372 30.1623 38.4604C31.1808 37.2885 32.4643 36.8211 33.999 37.0653C34.3547 37.1211 34.6268 37.3094 34.6686 37.6791C34.7175 38.1395 34.7524 38.6069 34.7105 39.0603C34.6407 39.8835 34.2571 40.5811 33.6851 41.2507C36.873 41.6762 39.7121 42.8412 42.2722 44.7735C42.2722 43.0295 42.2722 41.3484 42.2722 39.6463C42.1187 39.6533 41.9792 39.6603 41.8397 39.6672C37.4659 39.8974 34.0548 35.9073 34.9547 31.6172C35.0384 31.2196 35.2616 31.0173 35.6453 30.9406C36.7474 30.7243 37.8426 30.7662 38.9169 31.094C39.1541 31.1638 39.3842 31.2475 39.6493 31.3382C39.6284 31.2057 39.6144 31.115 39.6005 31.0243C39.454 30.1942 39.447 29.3571 39.6144 28.527C40.0051 26.5528 41.0933 25.074 42.7814 24.0137C42.9209 24.0137 43.0605 24.0137 43.2 24.0137C45.6694 25.6181 46.7506 27.8782 46.4088 30.808C46.3879 30.9755 46.36 31.1429 46.3321 31.3382C46.4507 31.2963 46.5274 31.2684 46.6041 31.2405C47.804 30.7801 49.0387 30.6825 50.3013 30.9266C50.664 30.9964 50.9221 31.1568 51.0128 31.5405C51.8708 35.1888 49.3107 38.9976 45.5927 39.5626C44.9788 39.6533 44.351 39.6463 43.7162 39.6882C43.7162 41.3833 43.7162 43.0993 43.7162 44.8642C46.2763 42.897 49.1224 41.7181 52.3103 41.2577C51.4035 40.1974 51.0616 39.0464 51.2918 37.735C51.3616 37.3583 51.5709 37.1281 51.9476 37.0653C53.3985 36.8142 54.6332 37.2118 55.6587 38.2651C55.7842 38.3976 55.8958 38.5372 56.0353 38.6976C56.1051 38.6209 56.1539 38.5651 56.2028 38.5023C57.2073 37.3094 58.4699 36.8142 60.0115 37.0444C60.4998 37.1141 60.6812 37.2885 60.7788 37.7629C60.7928 37.8396 60.8277 37.9024 60.8486 37.9652ZM42.2931 33.3542C42.2931 33.1728 42.2931 33.0612 42.2931 32.9426C42.2931 32.0707 42.2931 31.1987 42.2931 30.3267C42.2931 29.8105 42.5512 29.5036 42.9768 29.4966C43.4162 29.4896 43.6813 29.8035 43.6813 30.3407C43.6813 30.808 43.6813 31.2684 43.6813 31.7358C43.6813 32.252 43.6813 32.7682 43.6813 33.3263C43.7511 33.2844 43.779 33.2705 43.7999 33.2496C45.7322 31.1499 45.4183 27.4527 43.1721 25.7018C43.0186 25.5832 42.907 25.5762 42.7884 25.7158C42.3908 26.1831 41.9234 26.6086 41.6095 27.1249C40.4306 29.085 40.7236 31.7986 42.2931 33.3542ZM36.28 32.2799C35.6313 35.0144 38.7006 38.7116 41.2258 38.2023C40.4655 37.442 39.7191 36.7025 38.9797 35.9492C38.603 35.5655 38.5681 35.1539 38.882 34.854C39.182 34.561 39.5935 34.6028 39.9563 34.9586C40.6469 35.6492 41.3375 36.3398 42.0281 37.0304C42.0978 37.1002 42.1745 37.156 42.2722 37.2467C42.1118 33.8564 38.9239 31.7567 36.28 32.2799ZM43.7162 37.2606C44.5323 36.4514 45.2927 35.6841 46.06 34.9237C46.3949 34.5889 46.8204 34.568 47.1134 34.8609C47.4064 35.1539 47.3854 35.5585 47.0436 35.9073C46.6948 36.2631 46.3391 36.6188 45.9833 36.9676C45.5717 37.3722 45.1532 37.7629 44.6858 38.2163C47.4412 38.2791 50.2594 35.4957 49.6944 32.2729C46.7995 31.7498 43.7999 34.1145 43.7162 37.2606ZM59.4256 38.4116C57.9606 38.286 56.5027 39.7719 56.7748 41.0903C58.2397 41.1879 59.5581 39.8695 59.4256 38.4116ZM55.282 41.0973C55.5401 39.9881 54.3123 38.2442 52.6451 38.4256C52.4777 39.8277 53.7822 41.1461 55.282 41.0973ZM26.5628 38.4046C26.3745 39.8207 27.8115 41.2577 29.2136 41.0763C29.388 39.6882 28.0696 38.3418 26.5628 38.4046ZM30.6646 41.0833C32.1504 41.2019 33.5804 39.7509 33.3154 38.4116C31.9063 38.2791 30.5599 39.6184 30.6646 41.0833Z" fill="white"/>
<path d="M42.8512 59.7295C42.4885 59.5342 42.3629 59.2342 42.3559 58.8157C42.2652 53.4653 38.2681 48.945 32.9666 48.2056C32.4294 48.1288 31.8784 48.0939 31.3342 48.087C29.5833 48.073 27.8254 48.073 26.0745 48.087C25.649 48.0939 25.3351 47.9754 25.1328 47.5917C25.1328 47.4522 25.1328 47.3127 25.1328 47.1731C25.3491 46.8034 25.656 46.6779 26.0885 46.6848C27.8324 46.7058 29.5764 46.6918 31.3203 46.6918C37.2846 46.6988 42.2722 50.7308 43.4999 56.5695C43.6464 57.281 43.6674 58.0204 43.758 58.7459C43.8138 59.1854 43.6674 59.5132 43.2697 59.7295C43.1302 59.7295 42.9907 59.7295 42.8512 59.7295Z" fill="white"/>
<path d="M37.2706 59.7298C36.9079 59.5345 36.7823 59.2345 36.7683 58.816C36.6916 56.0257 34.3547 53.7167 31.5435 53.6679C29.7228 53.64 27.8952 53.647 26.0745 53.6679C25.649 53.6749 25.3351 53.5563 25.1328 53.1726C25.1328 53.0331 25.1328 52.8936 25.1328 52.7541C25.3421 52.3844 25.656 52.2588 26.0815 52.2588C27.8324 52.2727 29.5903 52.2588 31.3412 52.2658C34.7314 52.2867 37.445 54.5538 38.0728 57.8812C38.1286 58.1672 38.1356 58.4602 38.1705 58.7462C38.2263 59.1857 38.0798 59.5136 37.6891 59.7298C37.5496 59.7298 37.4101 59.7298 37.2706 59.7298Z" fill="white"/>
<path d="M60.8493 47.5921C60.8144 47.6479 60.7726 47.7038 60.7377 47.7596C60.5424 48.0386 60.2773 48.1502 59.9564 48.0525C59.6495 47.9619 59.4751 47.7317 59.4611 47.4108C59.4542 47.0759 59.6286 46.8388 59.9494 46.7341C60.2773 46.6225 60.5354 46.7481 60.7307 47.0132C60.7726 47.069 60.8075 47.1178 60.8493 47.1736C60.8493 47.3131 60.8493 47.4526 60.8493 47.5921Z" fill="white"/>
</g>
<path d="M24.9285 73.1982C25.2278 72.2769 26.5411 72.2769 26.8405 73.1982C26.9744 73.6102 27.3633 73.8928 27.7965 73.8928C28.7652 73.8928 29.1711 75.1418 28.3874 75.7112C28.0369 75.9659 27.8883 76.4231 28.0222 76.8351C28.3215 77.7564 27.259 78.5284 26.4753 77.959C26.1248 77.7043 25.6441 77.7043 25.2936 77.959C24.5099 78.5284 23.4474 77.7564 23.7468 76.8351C23.8806 76.4231 23.7321 75.9659 23.3816 75.7112C22.5979 75.1418 23.0037 73.8928 23.9724 73.8928C24.4057 73.8928 24.7946 73.6102 24.9285 73.1982Z" fill="white"/>
<path d="M36.9597 77.7099C37.2591 76.7886 38.5724 76.7886 38.8717 77.7099C39.0056 78.1219 39.3945 78.4045 39.8278 78.4045C40.7965 78.4045 41.2023 79.6535 40.4186 80.2229C40.0681 80.4776 39.9196 80.9348 40.0534 81.3468C40.3528 82.2681 39.2903 83.0401 38.5066 82.4707C38.1561 82.216 37.6754 82.216 37.3249 82.4707C36.5412 83.0401 35.4787 82.2681 35.778 81.3468C35.9119 80.9348 35.7633 80.4776 35.4128 80.2229C34.6291 79.6535 35.035 78.4045 36.0037 78.4045C36.4369 78.4045 36.8258 78.1219 36.9597 77.7099Z" fill="white"/>
<path d="M48.991 77.7099C49.2903 76.7886 50.6036 76.7886 50.903 77.7099C51.0369 78.1219 51.4258 78.4045 51.859 78.4045C52.8277 78.4045 53.2336 79.6535 52.4499 80.2229C52.0994 80.4776 51.9508 80.9348 52.0847 81.3468C52.384 82.2681 51.3215 83.0401 50.5378 82.4707C50.1873 82.216 49.7066 82.216 49.3561 82.4707C48.5724 83.0401 47.5099 82.2681 47.8093 81.3468C47.9431 80.9348 47.7946 80.4776 47.4441 80.2229C46.6604 79.6535 47.0662 78.4045 48.0349 78.4045C48.4682 78.4045 48.8571 78.1219 48.991 77.7099Z" fill="white"/>
<path d="M61.0222 73.1982C61.3216 72.2769 62.6349 72.2769 62.9342 73.1982C63.0681 73.6102 63.457 73.8928 63.8903 73.8928C64.859 73.8928 65.2648 75.1418 64.4811 75.7112C64.1306 75.9659 63.9821 76.4231 64.1159 76.8351C64.4153 77.7564 63.3528 78.5284 62.5691 77.959C62.2186 77.7043 61.7379 77.7043 61.3874 77.959C60.6037 78.5284 59.5412 77.7564 59.8405 76.8351C59.9744 76.4231 59.8258 75.9659 59.4753 75.7112C58.6916 75.1418 59.0975 73.8928 60.0662 73.8928C60.4994 73.8928 60.8883 73.6102 61.0222 73.1982Z" fill="white"/>
<defs>
<clipPath id="clip0_80_5269">
<rect width="35.7158" height="35.7158" fill="white" transform="translate(25.1328 24.0137)"/>
</clipPath>
</defs>
</svg>
