<svg width="31" height="31" viewBox="0 0 31 31" fill="none" xmlns="http://www.w3.org/2000/svg">
<path d="M23 1H8.33333C4.28325 1 1 4.28325 1 8.33333V23C1 27.0501 4.28325 30.3333 8.33333 30.3333H23C27.0501 30.3333 30.3333 27.0501 30.3333 23V8.33333C30.3333 4.28325 27.0501 1 23 1Z" stroke="white" stroke-linecap="round" stroke-linejoin="round"/>
<path d="M15.668 21.166C18.7055 21.166 21.168 18.7036 21.168 15.666C21.168 12.6284 18.7055 10.166 15.668 10.166C12.6304 10.166 10.168 12.6284 10.168 15.666C10.168 18.7036 12.6304 21.166 15.668 21.166Z" stroke="white" stroke-linecap="round" stroke-linejoin="round"/>
<path d="M23.918 7.41602V7.41702" stroke="white" stroke-width="2.75" stroke-linecap="round" stroke-linejoin="round"/>
</svg>
