<svg width="31" height="37" viewBox="0 0 31 37" fill="none" xmlns="http://www.w3.org/2000/svg">
<path d="M9.83156 18.5008C8.03849 18.5008 6.28568 19.0193 4.7948 19.9905C3.30391 20.9618 2.14191 22.3423 1.45573 23.9575C0.769553 25.5726 0.590017 27.3499 0.939828 29.0646C1.28964 30.7792 2.15309 32.3542 3.42098 33.5904C4.68887 34.8266 6.30427 35.6685 8.06289 36.0096C9.8215 36.3506 11.6444 36.1756 13.3009 35.5066C14.9575 34.8375 16.3734 33.7046 17.3696 32.251C18.3658 30.7974 18.8975 29.0884 18.8975 27.3401V0.822266C18.8975 3.75267 20.0914 6.56305 22.2167 8.63516C24.3419 10.7073 27.2244 11.8714 30.2299 11.8714" stroke="white" stroke-linecap="round" stroke-linejoin="round"/>
</svg>
