<svg width="54" height="54" viewBox="0 0 54 54" fill="none" xmlns="http://www.w3.org/2000/svg">
<path d="M1 28.4877C1 27.4311 1 26.3882 1 25.3452C1.02708 25.2504 1.0677 25.1555 1.08124 25.0472C1.25726 22.4059 1.85302 19.8729 2.80082 17.4077C2.86852 17.2181 2.85498 16.9878 2.88206 16.7846C3.13932 16.4731 3.34242 16.1209 3.51844 15.7687C7.47212 7.79061 13.8359 2.95497 22.5692 1.26182C23.6253 1.05865 24.7085 0.977375 25.7782 0.855469C26.6989 0.855469 27.6061 0.855469 28.5133 0.855469C28.6622 0.882559 28.8112 0.93674 28.9466 0.950285C30.9099 1.07219 32.8325 1.45146 34.7146 2.0339C47.6318 6.07037 55.2954 19.2769 52.3843 32.47C50.0554 43.0352 41.444 51.0133 30.6797 52.5846C29.9621 52.6929 29.2444 52.7742 28.5268 52.8555C27.5113 52.8555 26.4958 52.8555 25.4803 52.8555C25.372 52.8284 25.2637 52.7877 25.1418 52.7742C23.9232 52.5981 22.6911 52.4897 21.486 52.2459C11.2633 50.1329 3.17994 41.7213 1.4062 31.3863C1.24372 30.4246 1.1354 29.4494 1 28.4877ZM3.81632 19.8594C0.58026 30.0183 4.68288 42.9133 16.3679 48.6565C27.2947 54.0339 39.9546 50.2277 46.3861 41.3556C45.9122 40.8951 45.4383 40.4074 44.9238 39.974C44.4634 39.5676 44.2874 39.1071 44.3145 38.4976C44.3551 37.7255 44.3415 36.9399 44.3145 36.1678C44.3009 35.9104 44.2468 35.626 44.1384 35.3957C43.475 34.0276 42.8521 32.6325 42.0804 31.3186C41.119 29.6932 40.6316 28 40.8347 26.1037C40.8618 25.9005 40.7805 25.5619 40.6451 25.4806C39.9952 25.1285 39.5348 24.4377 38.7089 24.397C38.6006 24.397 38.4787 24.4512 38.3704 24.4783C37.5851 24.6679 36.7998 24.8846 36.0009 25.0472C35.7572 25.1014 35.4458 25.1014 35.2156 25.0065C33.2387 24.1803 31.2619 23.3405 29.2986 22.4601C29.0413 22.3517 28.7705 22.0131 28.7299 21.7557C28.4185 19.8052 28.1612 17.8411 27.8769 15.8771C27.8227 15.4572 27.9311 15.1186 28.2425 14.8206C29.0278 14.0485 29.786 13.2493 30.5984 12.5043C30.8286 12.3012 31.1942 12.1386 31.4921 12.1386C33.1169 12.098 34.7417 12.1251 36.3665 12.1115C36.7727 12.1115 37.0841 12.2605 37.3007 12.5992C37.6934 13.2087 38.0861 13.8318 38.5193 14.4007C38.6683 14.6038 38.9391 14.7799 39.1963 14.8341C39.914 14.9967 40.6722 15.0508 41.3898 15.2269C42.6761 15.5385 43.9083 15.5385 45.1269 14.9696C45.7903 14.658 46.535 14.4819 47.2391 14.2517C47.361 14.211 47.4693 14.1568 47.6588 14.0756C46.7787 12.8971 45.9257 11.7729 45.0727 10.6216C44.4228 11.055 43.8541 11.4614 43.2583 11.8135C43.0011 11.9625 42.6355 12.1115 42.3647 12.0573C40.266 11.6374 38.1267 11.3394 36.1092 10.5809C35.8113 10.4726 35.4051 10.459 35.0937 10.5403C32.1149 11.2717 32.1285 11.2853 29.5288 10.3777C29.5152 10.3777 29.5017 10.3642 29.4746 10.3642C28.7705 10.1068 28.5674 9.6463 28.8924 8.96904C29.4205 7.88542 29.9621 6.81535 30.4901 5.74528C30.6932 5.33893 31.0046 5.1493 31.465 5.16284C32.2368 5.17639 33.0221 5.10866 33.7939 5.17639C34.674 5.25766 35.3104 4.74294 36.1634 4.36367C30.6255 2.19644 25.1689 1.99327 19.631 3.80832C20.0372 4.06568 20.457 4.30949 20.9038 4.39076C22.2984 4.66167 23.7066 4.86485 25.1012 5.09511C26.0355 5.25766 26.2792 5.67756 25.9948 6.558C25.7647 7.26235 25.5074 7.9667 25.2908 8.67105C25.1554 9.10449 24.8981 9.36185 24.4784 9.4973C23.8961 9.68694 23.3139 9.84948 22.7452 10.0797C22.5286 10.161 22.312 10.3371 22.1901 10.5403C21.486 11.6781 20.8226 12.8294 20.1049 13.9672C19.9154 14.2652 19.631 14.5497 19.3332 14.7393C18.1552 15.4843 16.9772 16.2022 15.7721 16.8794C15.3524 17.1097 14.8785 17.2722 14.4046 17.3535C12.9558 17.5973 11.4935 17.787 10.0312 17.9766C9.76038 18.0172 9.67914 18.1256 9.65206 18.3965C9.5979 19.1279 9.67914 19.751 10.3426 20.2115C11.1685 20.794 11.5747 21.5796 11.3987 22.6091C11.3852 22.6903 11.4123 22.7716 11.4258 22.8393C11.4664 22.8664 11.507 22.8935 11.5477 22.9341C11.832 22.6226 12.0893 22.2975 12.3871 22.0131C13.01 21.4035 13.6057 21.5119 14.0119 22.284C14.3911 23.0019 14.7837 23.7198 15.0951 24.4647C15.3118 24.9659 15.5961 25.1014 16.1242 25.0878C17.6407 25.0472 19.1707 25.0878 20.6872 25.0607C21.2017 25.0472 21.5402 25.2504 21.7974 25.6838C22.4609 26.8216 23.1379 27.9594 23.842 29.0701C23.9368 29.2327 24.194 29.3681 24.3971 29.3816C25.2095 29.4223 26.0219 29.3952 26.8343 29.3952C27.5926 29.4087 27.9311 29.7745 27.8092 30.533C27.7009 31.2509 27.4707 31.9552 27.403 32.6731C27.2541 34.2986 26.6448 35.6531 25.3043 36.6419C25.1824 36.7367 25.1012 36.8721 24.9793 36.9534C23.7878 37.8068 23.2733 38.9175 23.5306 40.3803C23.6118 40.8544 23.3681 41.2201 22.9754 41.5046C22.1224 42.1277 21.2965 42.7643 20.457 43.3874C20.1862 43.5906 20.0643 43.7937 20.0643 44.1324C20.0914 45.1618 20.0779 46.1912 20.0779 47.2342C20.0779 48.3043 19.604 48.6294 18.5749 48.2907C17.9115 48.074 17.2615 47.8302 16.6116 47.627C16.1513 47.4916 15.8669 47.2207 15.6909 46.7737C15.2035 45.514 14.6754 44.2678 14.2015 43.0081C14.0796 42.6966 14.0119 42.3579 14.0119 42.0193C13.9984 40.2178 13.9984 38.335 13.9984 36.4658C13.9984 35.8292 13.9984 35.179 13.9984 34.5153C12.8881 34.2986 11.8185 34.0683 10.7488 33.8787C10.2072 33.7838 9.82808 33.5265 9.5979 33.0118C9.20524 32.172 8.81258 31.3186 8.35222 30.5194C7.67522 29.3546 7.98664 28.1084 7.95956 26.8893C7.94602 26.1714 8.67718 25.8734 9.06984 25.3723C9.09692 25.3452 9.11046 25.3181 9.13754 25.2639C9.00214 25.1691 8.88028 25.0607 8.73134 24.9659C7.55336 24.1803 6.37538 23.3811 5.18386 22.6091C4.77766 22.3517 4.5204 22.0131 4.385 21.5525C4.22252 20.9972 4.01942 20.4689 3.81632 19.8594ZM48.4712 15.701C47.0089 16.1886 45.5466 16.6898 44.0707 17.1639C43.7593 17.2587 43.4073 17.3129 43.0823 17.2722C41.5117 17.042 39.9546 16.7575 38.3839 16.5002C37.9507 16.4324 37.6392 16.2293 37.3955 15.8635C37.0299 15.2946 36.6644 14.7257 36.2582 14.1839C36.1363 14.0214 35.8926 13.8995 35.703 13.8724C35.1885 13.8318 34.6604 13.8589 34.1324 13.8589C33.32 13.8589 32.4128 13.6557 31.7223 13.9401C31.0182 14.2381 30.5172 15.0373 29.9214 15.6197C29.9079 15.6333 29.8944 15.6468 29.8808 15.6604C29.8131 15.85 29.6777 16.0532 29.7048 16.2293C29.8944 17.6921 30.1245 19.1415 30.3006 20.6044C30.3412 20.9701 30.5037 21.1191 30.8151 21.2545C32.3045 21.8776 33.7939 22.5413 35.2968 23.1509C35.5541 23.2592 35.8926 23.2728 36.1634 23.2186C36.9758 23.056 37.7746 22.8393 38.5735 22.6226C39.0474 22.5007 39.4536 22.5413 39.8733 22.8393C40.5639 23.3269 41.268 23.801 41.9856 24.248C42.4459 24.5325 42.622 24.9117 42.6084 25.4265C42.5949 26.2663 42.5813 27.1196 42.6084 27.9594C42.622 28.2303 42.6761 28.5283 42.798 28.7721C43.7729 30.7633 44.7884 32.7273 45.7497 34.7185C45.9393 35.0977 46.0205 35.5447 46.0476 35.9782C46.0882 36.7367 46.0476 37.4952 46.0611 38.2673C46.0611 38.4434 46.1017 38.6466 46.2101 38.7685C46.5486 39.1748 46.9412 39.5541 47.3203 39.9604C52.1406 32.8763 52.4926 23.0019 48.4712 15.701ZM25.9407 31.2103C25.4126 31.2103 24.9523 31.1561 24.5054 31.2238C23.4493 31.3592 22.7588 30.98 22.2849 29.9912C21.8381 29.043 21.2152 28.1897 20.7007 27.2821C20.5111 26.9571 20.308 26.8622 19.9425 26.8622C18.3854 26.8893 16.8283 26.8487 15.2712 26.8893C14.5806 26.9029 14.1609 26.6455 13.8901 26.0224C13.5922 25.3452 13.2402 24.7086 12.8881 24.0042C11.8185 25.0743 10.8165 26.0766 9.82808 27.0925C9.71976 27.2009 9.67914 27.4176 9.6656 27.5937C9.54374 28.6773 9.7333 29.7067 10.3426 30.6413C10.5863 31.0071 10.7082 31.4405 10.9519 31.8062C11.0873 31.9959 11.3175 32.199 11.5477 32.2532C12.6309 32.5106 13.7276 32.7002 14.8243 32.9305C15.5284 33.0795 15.7315 33.3368 15.7315 34.0547C15.7315 35.6802 15.8263 37.3056 15.7044 38.931C15.542 41.2472 15.9888 43.4009 16.9637 45.5004C17.2751 46.1506 17.6813 46.3402 18.3312 46.435C18.3312 45.4733 18.3447 44.5387 18.3312 43.6176C18.3177 43.13 18.5072 42.7778 18.8999 42.5069C19.4821 42.1006 19.9966 41.5859 20.6195 41.2472C21.5808 40.7054 22.0276 39.974 21.811 38.8633C21.7839 38.7278 21.8245 38.5924 21.811 38.4569C21.7704 37.9964 21.9599 37.6578 22.2849 37.3327C23.2191 36.4251 24.1263 35.4905 25.047 34.5695C25.1554 34.4611 25.3043 34.3527 25.3314 34.2308C25.5345 33.2149 25.724 32.2397 25.9407 31.2103ZM9.54374 23.4218C9.61144 23.3947 9.67914 23.3676 9.76038 23.3405C9.65206 22.8258 9.71976 22.0672 9.40834 21.8234C8.13558 20.8075 7.7023 19.5478 7.93248 17.9901C7.94602 17.8547 7.93248 17.7192 7.93248 17.5838C7.94602 16.8253 8.1762 16.5408 8.93444 16.4324C9.99056 16.2699 11.0467 16.1209 12.1028 15.9855C13.4839 15.8094 14.7973 15.5114 16.07 14.7935C17.8573 13.7911 19.2925 12.5585 20.1049 10.6622C20.7142 9.2264 21.7433 8.35951 23.2868 8.11569C23.341 8.10215 23.3952 8.0886 23.4222 8.06151C23.5576 7.93961 23.7337 7.8177 23.8149 7.6687C23.9503 7.3978 24.0045 7.0998 24.1128 6.76117C23.5306 6.65281 22.9619 6.51736 22.4067 6.46318C20.7007 6.31418 19.1301 5.86719 17.8031 4.72939C17.6813 4.62103 17.3834 4.60749 17.2209 4.67521C11.6018 7.22171 7.4992 11.2988 4.89952 16.9065C4.81828 17.0691 4.81828 17.2993 4.87244 17.4754C5.22448 18.5997 5.6036 19.7239 5.98272 20.8482C6.02334 20.9701 6.09104 21.1191 6.18582 21.1868C7.2961 21.9318 8.41992 22.6768 9.54374 23.4218ZM30.8286 8.99613C32.1014 9.52439 32.1014 9.52439 33.3064 9.21285C33.9293 9.05031 34.5521 8.87422 35.175 8.76586C35.4864 8.71168 35.8655 8.68459 36.1498 8.79295C38.059 9.52439 40.0494 9.87657 42.0397 10.2694C42.1887 10.2965 42.3918 10.31 42.5272 10.2287C42.9469 9.98493 43.3396 9.70048 43.7322 9.44312C43.7052 9.3754 43.7052 9.33476 43.6781 9.30767C42.1074 7.77706 40.3337 6.49027 38.3704 5.46083C38.2485 5.39311 38.0184 5.43374 37.8694 5.50147C37.057 5.88074 36.2717 6.31418 35.4593 6.6799C35.1479 6.81535 34.7823 6.91017 34.4438 6.92372C33.6991 6.96435 32.9544 6.92372 32.2097 6.95081C32.0608 6.95081 31.8306 7.04562 31.7629 7.16753C31.4379 7.74997 31.1536 8.35951 30.8286 8.99613Z" fill="#008280" stroke="#008280" stroke-width="0.5"/>
</svg>
