<svg width="36" height="62" viewBox="0 0 36 62" fill="none" xmlns="http://www.w3.org/2000/svg">
<path d="M17.3143 2.17738C19.2956 0.353998 22.3573 0.414518 24.2661 2.3745C26.174 4.33535 26.2398 7.45819 24.4651 9.49512L17.3126 16.8371L10.1618 9.49512C8.38714 7.45819 8.45377 4.33017 10.3608 2.3745C12.2713 0.417112 15.3271 0.351404 17.3143 2.17738ZM23.0717 3.59614C21.8065 2.29756 19.7654 2.24482 18.4412 3.46386L17.3151 4.49962L16.1883 3.46473C14.8598 2.24395 12.8229 2.29756 11.5543 3.59787C10.2976 4.88609 10.2343 6.94809 11.3924 8.31066L17.3134 14.3895L23.2345 8.31152C24.3934 6.94809 24.3302 4.88868 23.0717 3.59614Z" fill="#D53A42"/>
<path fill-rule="evenodd" clip-rule="evenodd" d="M10.5398 2.54904C12.3556 0.688753 15.2572 0.626655 17.1451 2.36147ZM17.3142 1.84416C15.2267 0.0812852 12.1336 0.200253 10.1819 2.19989C8.18328 4.24946 8.11375 7.52498 9.97327 9.65934L17.3126 17.1954L24.6442 9.66957L24.6536 9.65934C26.5132 7.52489 26.4444 4.25479 24.4452 2.20016C22.4951 0.197674 19.3963 0.0837499 17.3142 1.84416ZM24.0869 2.54884C22.2731 0.686428 19.3658 0.629099 17.4836 2.36134L17.3144 2.51702L17.1451 2.36147M24.0869 2.54884C25.9019 4.41425 25.9662 7.38619 24.2811 9.32571L17.3126 16.4788L10.3458 9.32572C8.66066 7.38613 8.72602 4.40914 10.5398 2.54904M16.3574 3.28065V3.28065L17.315 4.16007L18.2718 3.27993V3.27993C19.6958 1.96914 21.8914 2.02638 23.2508 3.42169C24.5993 4.80675 24.6673 7.01189 23.425 8.47343L23.4195 8.4799L17.3134 14.7477L11.2074 8.47902L11.2019 8.47256C9.96056 7.01203 10.0282 4.80422 11.3754 3.4233C12.7381 2.02648 14.9292 1.96825 16.3574 3.28065ZM16.0191 3.64881C14.7904 2.51971 12.9077 2.56865 11.7333 3.77245C10.5689 4.96595 10.5083 6.87775 11.5775 8.14241L17.3135 14.0312L23.0494 8.14326C24.1194 6.8779 24.059 4.96854 22.8926 3.77054C21.7217 2.56875 19.8349 2.52059 18.6105 3.6478L17.3153 4.83918L16.0191 3.64881Z" fill="#D53A42"/>
<path d="M19.1749 59.3995L19.1656 59.3995C16.3759 59.4147 13.6719 58.5323 11.4802 56.4666L11.4788 56.4653C9.00935 54.1195 6.60129 51.7329 4.1908 49.3439C3.70804 48.8654 3.22518 48.3868 2.7417 47.9085L19.1749 59.3995ZM19.1749 59.3995L19.1841 59.3991M19.1749 59.3995L19.1841 59.3991M19.1841 59.3991C22.3776 59.263 24.9688 58.1685 27.1049 56.0658C27.4559 55.7202 27.812 55.3729 28.1695 55.0242C28.8901 54.3213 29.6168 53.6125 30.3209 52.8999L30.3224 52.8984M19.1841 59.3991L30.3224 52.8984M30.3224 52.8984C30.7296 52.4827 31.1307 52.0432 31.4892 51.5676L31.4911 51.565M30.3224 52.8984L31.4911 51.565M31.4911 51.565C34.795 47.1217 34.2931 41.1327 30.3012 37.2032C26.2759 33.2408 22.2504 29.2911 18.2252 25.3418C16.2128 23.3673 14.2005 21.3929 12.1883 19.417M31.4911 51.565L5.25503 18.3399M5.25503 18.3399L5.25515 18.3395C5.94281 16.3979 8.38419 15.8418 9.92161 17.2157M5.25503 18.3399C5.04648 18.9301 5.02175 19.4998 5.17777 20.0385C5.33195 20.5708 5.6518 21.036 6.07333 21.4431L6.1168 21.4858C9.69765 24.9961 13.2634 28.4918 16.8292 32.0018C17.107 32.2752 17.2074 32.4998 17.2251 32.656C17.2405 32.7917 17.202 32.9422 17.0314 33.115C16.871 33.2773 16.7056 33.3286 16.5371 33.3127C16.3536 33.2953 16.1106 33.1912 15.8416 32.9331L15.8198 32.9116L15.7959 32.8881L15.772 32.8645L15.748 32.8409L15.7002 32.7938L15.6523 32.7467L15.6284 32.7232L15.6045 32.6996L15.5566 32.6525L15.5087 32.6054L15.4848 32.5818L15.4609 32.5583L15.3651 32.464L15.2694 32.3698L15.2634 32.3639L15.2575 32.358L15.2515 32.3521L15.2455 32.3463L15.2395 32.3404L15.2335 32.3345L15.2275 32.3286L15.2216 32.3227L15.1737 32.2756L15.1498 32.252L15.1438 32.2461L15.1378 32.2402L15.1318 32.2344L15.1258 32.2285L15.078 32.1814L15.0301 32.1342L15.0241 32.1284L15.0182 32.1225L15.0122 32.1166L15.0062 32.1107L14.9823 32.0871L14.9583 32.0636L14.9344 32.04L14.9284 32.0341L14.9224 32.0282L14.9164 32.0223L14.9105 32.0165L14.8865 31.9929L14.6951 31.8044L14.6831 31.7927L14.6712 31.7809L14.6592 31.7691L14.6472 31.7573L14.6233 31.7338L14.5994 31.7102L14.5515 31.6631L14.5395 31.6513L14.5336 31.6454L14.5276 31.6395L14.5036 31.616L14.4079 31.5218L14.3601 31.4747L14.3361 31.4511L14.3122 31.4275L14.3002 31.4158L14.2942 31.4099L14.2883 31.404L14.2643 31.3804L14.2165 31.3333L14.1686 31.2862L14.1207 31.2391L14.1148 31.2332L14.1088 31.2273L14.1028 31.2214L14.0968 31.2155L14.0848 31.2037L14.0729 31.192L14.025 31.1449L14.019 31.139L14.0131 31.1331L14.0011 31.1213L13.9772 31.0977L13.9532 31.0742L13.9413 31.0624L13.9293 31.0506L13.5464 30.6737L13.4507 30.5795L13.355 30.4853L13.349 30.4794L13.343 30.4735L13.331 30.4617L13.325 30.4558L13.3191 30.4499L13.3131 30.444L13.3071 30.4381L13.2951 30.4264L13.2832 30.4146L13.2772 30.4087L13.2712 30.4028L13.2592 30.391L13.1635 30.2968L13.1515 30.285L13.1396 30.2733L13.1157 30.2497L13.0678 30.2026L13.0199 30.1555L12.996 30.1319L12.984 30.1201L12.9781 30.1142L12.9721 30.1084L12.9242 30.0612L12.8763 30.0141L12.7806 29.9199C11.9708 29.1228 10.9438 28.793 9.80358 29.1262L9.8026 29.1265M5.25503 18.3399L9.8026 29.1265M9.92161 17.2157C9.92171 17.2158 9.92181 17.2159 9.9219 17.216L9.58873 17.5887L9.92142 17.2155C9.92148 17.2156 9.92155 17.2156 9.92161 17.2157ZM9.92161 17.2157C10.504 17.7349 11.0588 18.29 11.5987 18.8302C11.797 19.0286 11.9933 19.2251 12.1883 19.417M12.1883 19.417L11.8381 19.7735L12.1887 19.4174C12.1886 19.4173 12.1884 19.4171 12.1883 19.417ZM9.8026 29.1265C7.69615 29.7468 7.0817 32.306 8.6272 33.8623L8.62733 33.8625M9.8026 29.1265L8.62733 33.8625M8.62733 33.8625C9.51766 34.7584 10.4234 35.6434 11.326 36.5255C11.7751 36.9643 12.2234 37.4024 12.6687 37.8408C12.9182 38.093 13.0065 38.3056 13.0193 38.4559C13.0307 38.59 12.9886 38.7405 12.819 38.9075L12.819 38.9074M8.62733 33.8625L12.819 38.9074M12.819 38.9074L12.8137 38.9127M12.819 38.9074L12.8137 38.9127M12.8137 38.9127C12.6682 39.0603 12.505 39.1159 12.3375 39.1053C12.1623 39.0942 11.9407 39.0065 11.7128 38.7886L10.5388 37.6329L9.36233 36.4749L9.36236 36.4748M12.8137 38.9127L9.36236 36.4748M9.36236 36.4748L9.3578 36.4704M9.36236 36.4748L9.3578 36.4704M9.3578 36.4704C8.67248 35.8127 7.80706 35.4615 6.80909 35.6395C5.70439 35.8299 4.89845 36.4909 4.5418 37.5617C4.18234 38.6409 4.46335 39.651 5.23781 40.4311C5.78825 40.9876 6.34934 41.5363 6.90695 42.0816L6.90847 42.083C7.4675 42.6297 8.02303 43.1729 8.56705 43.7229C8.75441 43.9126 8.81992 44.0928 8.82443 44.2342C8.82883 44.3719 8.77765 44.5271 8.62578 44.6813C8.36288 44.9481 7.9608 44.9841 7.58835 44.6489C7.41896 44.4912 7.26101 44.3328 7.0938 44.165C7.0052 44.0761 6.914 43.9846 6.81712 43.8892L6.8172 43.8891M9.3578 36.4704L6.8172 43.8891M6.8172 43.8891L6.809 43.8814M6.8172 43.8891L6.809 43.8814M6.809 43.8814C5.62138 42.7639 3.88013 42.7263 2.72831 43.8587M6.809 43.8814L2.72831 43.8587M2.72831 43.8587C1.58072 44.9721 1.55124 46.7357 2.7408 47.9076L2.72831 43.8587ZM1.84608 48.9448C-0.477263 46.6447 0.316752 43.0818 3.39018 41.9501C3.48916 41.9173 3.57469 41.8837 3.70911 41.8307L3.71958 41.8266L4.31468 41.5923L3.94367 41.0713C3.0184 39.7721 2.7699 38.4453 3.3085 37.0228C3.84961 35.5937 4.91873 34.7338 6.45166 34.3599L7.01028 34.2237L6.79778 33.6894C6.23444 32.273 6.35146 30.9898 6.87726 29.9723C7.40713 28.9469 8.36936 28.159 9.54898 27.7808L10.2956 27.5414L9.76364 26.9654C9.7499 26.9505 9.73617 26.9357 9.72246 26.9208C9.59211 26.7795 9.4628 26.6394 9.33274 26.5113C8.86396 26.0499 8.39507 25.5955 7.92811 25.143C6.90881 24.1552 5.89867 23.1763 4.91873 22.152L4.91874 22.152L4.91612 22.1493C2.62165 19.7869 3.77893 15.9961 7.00726 15.2502C8.61302 14.8846 9.96716 15.3417 11.1468 16.503C11.863 17.2079 12.5787 17.9108 13.2941 18.6135C14.724 20.0178 16.153 21.4212 17.5827 22.8382L17.5839 22.8394C17.8212 23.073 18.0384 23.3174 18.2804 23.5895C18.4037 23.7282 18.5334 23.8742 18.6755 24.0295L19.2603 24.6692L19.5213 23.8427C19.6248 23.5147 19.7188 23.2052 19.8089 22.9085C20.0221 22.2062 20.2135 21.5762 20.4578 20.9447L20.4584 20.9432C21.0258 19.4631 21.8783 18.1325 22.9641 16.9511L22.9659 16.9491C24.0873 15.7154 25.8149 15.2855 27.3889 15.8323C29.0455 16.4112 30.1604 17.8624 30.2653 19.4702C30.3555 20.9354 30.3357 22.2035 29.4221 23.1027C27.6792 24.8184 27.3113 26.9984 26.97 29.0209C26.9606 29.0766 26.9512 29.1322 26.9418 29.1877L26.9415 29.1896C26.8329 29.8465 26.7873 30.5124 26.7722 31.1678L26.772 31.1678V31.1793C26.772 31.547 26.9341 31.9918 27.2033 32.2788L27.2082 32.2841L27.2133 32.2893C27.974 33.0547 28.7507 33.8168 29.526 34.5778C30.1055 35.1464 30.6842 35.7143 31.255 36.2824C36.2963 41.301 36.2826 48.9352 31.2272 53.9404C30.8986 54.2639 30.5725 54.5873 30.2473 54.9098C29.4392 55.7111 28.6371 56.5067 27.8178 57.2821C25.7789 59.1763 23.3625 60.309 20.5705 60.6315L20.5704 60.6314L20.5582 60.6331C20.4297 60.6511 20.3086 60.6936 20.2172 60.7302H20.2169H20.2122H20.2074H20.2026H20.1979H20.1931H20.1883H20.1836H20.1788H20.174H20.1692H20.1645H20.1597H20.1549H20.1502H20.1454H20.1406H20.1359H20.1311H20.1263H20.1216H20.1168H20.112H20.1073H20.1025H20.0977H20.0929H20.0882H20.0834H20.0786H20.0739H20.0691H20.0643H20.0596H20.0548H20.05H20.0453H20.0405H20.0357H20.031H20.0262H20.0214H20.0166H20.0119H20.0071H20.0023H19.9976H19.9928H19.988H19.9833H19.9785H19.9737H19.969H19.9642H19.9594H19.9547H19.9499H19.9451H19.9403H19.9356H19.9308H19.926H19.9213H19.9165H19.9117H19.907H19.9022H19.8974H19.8927H19.8879H19.8831H19.8783H19.8736H19.8688H19.864H19.8593H19.8545H19.8497H19.845H19.8402H19.8354H19.8307H19.8259H19.8211H19.8164H19.8116H19.8068H19.802H19.7973H19.7925H19.7877H19.783H19.7782H19.7734H19.7687H19.7639H19.7591H19.7544H19.7496H19.7448H19.7401H19.7353H19.7305H19.7257H19.721H19.7162H19.7114H19.7067H19.7019H19.6971H19.6924H19.6876H19.6828H19.6781H19.6733H19.6685H19.6638H19.659H19.6542H19.6494H19.6447H19.6399H19.6351H19.6304H19.6256H19.6208H19.6161H19.6113H19.6065H19.6018H19.597H19.5922H19.5875H19.5827H19.5779H19.5731H19.5684H19.5636H19.5588H19.5541H19.5493H19.5445H19.5398H19.535H19.5302H19.5255H19.5207H19.5159H19.5112H19.5064H19.5016H19.4968H19.4921H19.4873H19.4825H19.4778H19.473H19.4682H19.4635H19.4587H19.4539H19.4492H19.4444H19.4396H19.4349H19.4301H19.4253H19.4205H19.4158H19.411H19.4062H19.4015H19.3967H19.3919H19.3872H19.3824H19.3776H19.3729H19.3681H19.3633H19.3585H19.3538H19.349H19.3442H19.3395H19.3347H19.3299H19.3252H19.3204H19.3156H19.3109H19.3061H19.3013H19.2966H19.2918H19.287H19.2822H19.2775H19.2727H19.2679H19.2632H19.2584H19.2536H19.2489H19.2441H19.2393H19.2346H19.2298H19.225H19.2203H19.2155H19.2107H19.2059H19.2012H19.1964H19.1916H19.1869H19.1821H19.1773H19.1726H19.1678H19.163H19.1583H19.1535H19.1487H19.144H19.1392H19.1344H19.1296H19.1249H19.1201H19.1153H19.1106H19.1058H19.101H19.0963H19.0915H19.0867H19.082H19.0772H19.0724H19.0677H19.0629H19.0581H19.0533H19.0486H19.0438H19.039H19.0343H19.0295H19.0247H19.02H19.0152H19.0104H19.0057H19.0009H18.9961H18.9914H18.9866H18.9818H18.977H18.9723H18.9675H18.9627H18.958H18.9532H18.9484H18.9437H18.9389H18.9341H18.9294H18.9246H18.9198H18.915H18.9103H18.9055H18.9007H18.896H18.8912H18.8864H18.8817H18.8769H18.8721H18.8674H18.8626H18.8578H18.8531H18.8483H18.8435H18.8387H18.834H18.8292H18.8244H18.8197H18.8149H18.8101H18.8054H18.8006H18.7958H18.7911H18.7863H18.7815H18.7768H18.772H18.7672H18.7624H18.7577H18.7529H18.7481H18.7434H18.7386H18.7338H18.7291H18.7243H18.7195H18.7148H18.71H18.7052H18.7005H18.6957H18.6909H18.6861H18.6814H18.6766H18.6718H18.6671H18.6623H18.6575H18.6528H18.648H18.6432H18.6385H18.6337H18.6289H18.6242H18.6194H18.6146H18.6098H18.6051H18.6003H18.5955H18.5908H18.586H18.5812H18.5765H18.5717H18.5669H18.5622H18.5574H18.5526H18.5478H18.5431H18.5383H18.5335H18.5288H18.524H18.5192H18.5145H18.5097H18.5049H18.5002H18.4954H18.4906H18.4859H18.4811H18.4763H18.4715H18.4668H18.462H18.4572H18.4525H18.4477H18.4429H18.4382H18.4334H18.4286H18.4239H18.4191H18.4143H18.4096H18.4048H18.4H18.3952H18.3905H18.3857H18.3809H18.3762H18.3714H18.3666H18.3619H18.3571H18.3523H18.3476H18.3428H18.338H18.3333H18.3285H18.3237H18.3189H18.3142H18.3094H18.3046H18.2999H18.2951H18.2903H18.2856H18.2808H18.276H18.2713H18.2665H18.2617H18.257H18.2522H18.2474H18.2426H18.2379H18.2331H18.2283H18.2236H18.2188H18.214H18.2093H18.2045H18.1997H18.195H18.1902H18.1854H18.1807H18.1759H18.1711H18.1663H18.1616H18.1568H18.152H18.1473H18.1425H18.1377H18.133H18.1282H18.1234H18.1187H18.1139H18.1091H18.1044H18.0996H18.0948H18.09H18.0853H18.0805H18.0757H18.071H18.0662H18.0614H18.0567H18.0519H18.0471H18.0424H18.0376H18.0328H18.028H18.0233H18.0185H18.0137H18.009H18.0042H17.9994H17.9947H17.9899H17.9851H17.9804H17.9756H17.9708H17.9661H17.9613H17.9565H17.9517H17.947H17.9422H17.9374H17.9328C17.6296 60.66 17.3303 60.5949 17.0345 60.5306C16.2184 60.3531 15.4292 60.1814 14.6593 59.9254C12.9089 59.3417 11.4041 58.339 10.0874 57.0428L10.0865 57.0419L10.086 57.0415C7.33363 54.3466 4.58238 51.6529 1.84608 48.9448ZM24.645 29.7311L25.297 30.3146L25.4687 29.4566C25.5314 29.1431 25.5885 28.8399 25.6442 28.5441C25.7637 27.9091 25.8768 27.3083 26.0258 26.7121L26.0265 26.7091C26.3718 25.2905 26.7183 23.992 27.6672 23.0579C28.6462 22.0943 29.0244 21.0322 28.9249 19.7226C28.838 18.5108 28.1626 17.5115 26.9818 17.0889C25.8469 16.6813 24.7323 16.9815 23.894 17.9271C22.2867 19.7376 21.3639 21.8346 20.9353 24.1689C20.831 24.7224 20.813 25.2588 20.969 25.77C21.1278 26.29 21.4513 26.7346 21.9438 27.1274L21.9454 27.1287C22.5021 27.569 22.9903 28.0725 23.5024 28.6005C23.7244 28.8295 23.9509 29.063 24.1894 29.2981C24.3263 29.4465 24.4638 29.5693 24.6024 29.6931C24.6166 29.7058 24.6308 29.7184 24.645 29.7311Z" fill="#D53A42" stroke="#FFF"/>
</svg>
