<svg width="62" height="61" viewBox="0 0 62 61" fill="none" xmlns="http://www.w3.org/2000/svg">
<path d="M0.03125 20.2949C0.40625 19.5467 1.01562 19.3557 1.79688 19.3557C4.45312 19.3716 7.125 19.3557 9.78125 19.3716C10.2031 19.3716 10.4062 19.2442 10.5781 18.8462C12.125 15.3918 14.6094 12.8924 18.0312 11.3801C18.4219 11.205 18.5469 10.9821 18.5312 10.5682C18.5156 7.92558 18.5156 5.26705 18.5312 2.62444C18.5312 2.33789 18.5469 2.05134 18.6094 1.78071C18.7344 1.1917 19.25 0.825552 19.8438 0.85739C20.4375 0.87331 20.9062 1.28721 21 1.89215C21.0312 2.13094 21.0312 2.36973 21.0312 2.62444C21.0312 4.96458 21.0312 7.32064 21.0312 9.66079C21.0312 9.88366 21.0312 10.0906 21.0312 10.3772C21.2969 10.3612 21.4844 10.3612 21.6719 10.3294C24.6094 9.85182 27.4531 10.218 30.2188 11.2527C30.7344 11.4438 31.1094 11.4119 31.5625 11.0776C34.625 8.83298 37.8281 6.81122 41.3125 5.29889C43.0781 4.53476 44.875 3.92982 46.8125 3.89798C50.0625 3.83431 51.9063 5.76055 51.7656 9.05585C51.6719 10.998 51.0938 12.8287 50.3438 14.5958C48.7031 18.5119 46.4219 22.046 43.8594 25.3732C36.9844 34.3198 29.0781 42.1681 19.6875 48.3766C16.9844 50.1596 14.1719 51.7197 11.0312 52.5953C9.70312 52.9614 8.35938 53.1684 6.96875 52.9932C4.26563 52.6589 2.95312 50.6213 3.04688 47.9627C3.10938 46.0046 3.70312 44.1898 4.45312 42.4228C5.96875 38.8569 8.01562 35.6093 10.25 32.4891C10.5312 32.1071 10.5625 31.7887 10.3906 31.3429C9.25 28.4456 8.9375 25.4528 9.48438 22.3644C9.51562 22.2371 9.5 22.0938 9.51562 21.8868C9.125 21.8868 8.78125 21.8868 8.42188 21.8868C6.15625 21.8868 3.89062 21.8709 1.625 21.9028C0.84375 21.9028 0.28125 21.6481 0 20.8839C0.03125 20.6929 0.03125 20.5019 0.03125 20.2949ZM33.4219 12.7332C34.2344 13.3382 34.9219 13.8317 35.5781 14.3411C36.3438 14.946 36.4688 15.3599 36.1406 16.2832C34.9531 19.6422 33.5625 22.8898 31.8438 25.994C30.4844 28.4456 28.75 30.4992 26.3594 32.0115C22.9688 34.1447 19.3594 35.8003 15.6562 37.2649C14.7031 37.647 14.2969 37.5515 13.625 36.7237C13.0469 36.0073 12.5 35.275 11.9062 34.5268C11.3125 35.4024 10.7188 36.2461 10.1875 37.1057C8.46875 39.8439 6.8125 42.6457 5.96875 45.8295C5.70312 46.8484 5.65625 47.9309 5.65625 48.9975C5.65625 49.7934 6.20313 50.2392 6.96875 50.4143C8.21875 50.7009 9.42187 50.4461 10.5937 50.08C13.8594 49.093 16.7969 47.3896 19.5781 45.4475C28.5469 39.1912 36.1719 31.518 42.7188 22.7146C44.9219 19.7537 46.8438 16.6175 48.2188 13.179C48.8125 11.6825 49.3125 10.1384 49.2344 8.48276C49.1719 7.14553 48.5156 6.44508 47.2031 6.49284C46.2969 6.52468 45.3438 6.58835 44.5156 6.89082C42.6563 7.59127 40.8125 8.33948 39.0625 9.2628C37.1562 10.2816 35.3438 11.5393 33.4219 12.7332ZM33.625 15.9648C30.1875 13.4496 26.5 12.192 22.3281 12.7651C18.5156 13.2904 15.5625 15.2326 13.5469 18.5597C10.5469 23.5425 11.4844 29.942 15 34.3676C15.1094 34.495 15.4219 34.5746 15.5781 34.5109C18.6562 33.2692 21.6875 31.916 24.5312 30.1649C26 29.2575 27.375 28.2227 28.375 26.7741C30.6875 23.4788 32.1406 19.7377 33.625 15.9648Z" fill="#7E89C7"/>
<path d="M54.8448 51.5445C54.8135 52.7066 53.8292 53.3115 53.0323 52.8658C52.8135 52.7384 52.6104 52.5633 52.4385 52.3723C50.0948 50.0162 47.751 47.6602 45.4229 45.2882C44.6104 44.4604 44.501 43.7281 45.0948 43.1391C45.6885 42.55 46.3604 42.6615 47.1573 43.4734C49.501 45.8294 51.8448 48.1855 54.1729 50.5575C54.501 50.8918 54.7042 51.3216 54.8448 51.5445Z" fill="#7E89C7"/>
<path d="M61.0317 31.5814C61.0473 32.4093 60.3286 33.0142 59.5005 32.8072C58.7505 32.6162 58.0317 32.3456 57.2973 32.0909C55.0317 31.3267 52.7505 30.5467 50.4848 29.7666C49.7817 29.5279 49.4067 29.0503 49.4223 28.4772C49.4536 27.5857 50.2348 27.0285 51.1567 27.331C52.813 27.8722 54.4692 28.4453 56.1255 29.0025C57.4223 29.4483 58.7192 29.8781 60.0161 30.3238C60.6723 30.5626 61.0161 31.0243 61.0317 31.5814Z" fill="#7E89C7"/>
<path d="M35.0952 60.8577C34.4858 60.8577 34.0952 60.5394 33.8452 59.7752C33.0639 57.3236 32.2827 54.8561 31.5014 52.4046C31.3295 51.8474 31.142 51.2902 30.9858 50.733C30.7827 49.9848 31.1108 49.3162 31.7358 49.0933C32.392 48.8705 33.0795 49.157 33.3139 49.8893C34.3295 52.9936 35.3139 56.0979 36.267 59.234C36.5327 60.1095 35.9233 60.8577 35.0952 60.8577Z" fill="#7E89C7"/>
</svg>
